<mxfile host="app.diagrams.net" modified="2022-10-04T08:41:02.934Z" agent="5.0 (X11)" etag="wFqSYiVKwZn6lxmxBDpC" version="20.4.0" type="github">
  <diagram id="aLIfD5e4r8FAHPwstK1r" name="Page-1">
    <mxGraphModel dx="2077" dy="2275" grid="1" gridSize="10" guides="1" tooltips="1" connect="1" arrows="1" fold="1" page="1" pageScale="1" pageWidth="850" pageHeight="1100" math="0" shadow="0">
      <root>
        <mxCell id="0" />
        <mxCell id="1" parent="0" />
        <mxCell id="5jYEiSAaDZzHOvazZetj-46" style="edgeStyle=orthogonalEdgeStyle;rounded=0;orthogonalLoop=1;jettySize=auto;html=1;entryX=0.5;entryY=1;entryDx=0;entryDy=0;" edge="1" parent="1" source="5jYEiSAaDZzHOvazZetj-42" target="5jYEiSAaDZzHOvazZetj-8">
          <mxGeometry relative="1" as="geometry" />
        </mxCell>
        <mxCell id="5jYEiSAaDZzHOvazZetj-8" value="Scafold" style="swimlane;fontStyle=1;childLayout=stackLayout;horizontal=1;startSize=30;horizontalStack=0;resizeParent=1;resizeParentMax=0;resizeLast=0;collapsible=1;marginBottom=0;fillColor=default;swimlaneFillColor=#E6E6E6;strokeColor=default;rounded=0;glass=0;spacing=2;labelBackgroundColor=none;fontSize=24;" vertex="1" parent="1">
          <mxGeometry x="260" y="480" width="280" height="810" as="geometry">
            <mxRectangle x="370" y="220" width="80" height="30" as="alternateBounds" />
          </mxGeometry>
        </mxCell>
        <mxCell id="5jYEiSAaDZzHOvazZetj-9" value="name" style="text;strokeColor=none;fillColor=none;align=left;verticalAlign=middle;spacingLeft=4;spacingRight=4;overflow=hidden;points=[[0,0.5],[1,0.5]];portConstraint=eastwest;rotatable=0;fontStyle=4;noLabel=0;imageHeight=24;labelBackgroundColor=none;fontSize=22;" vertex="1" parent="5jYEiSAaDZzHOvazZetj-8">
          <mxGeometry y="30" width="280" height="30" as="geometry" />
        </mxCell>
        <mxCell id="5jYEiSAaDZzHOvazZetj-12" value="json_encoder" style="text;strokeColor=none;fillColor=none;align=left;verticalAlign=middle;spacingLeft=4;spacingRight=4;overflow=hidden;points=[[0,0.5],[1,0.5]];portConstraint=eastwest;rotatable=0;fontStyle=4;fontSize=22;" vertex="1" parent="5jYEiSAaDZzHOvazZetj-8">
          <mxGeometry y="60" width="280" height="30" as="geometry" />
        </mxCell>
        <mxCell id="5jYEiSAaDZzHOvazZetj-13" value="json_decoder" style="text;strokeColor=none;fillColor=none;align=left;verticalAlign=middle;spacingLeft=4;spacingRight=4;overflow=hidden;points=[[0,0.5],[1,0.5]];portConstraint=eastwest;rotatable=0;fontStyle=4;fontSize=22;" vertex="1" parent="5jYEiSAaDZzHOvazZetj-8">
          <mxGeometry y="90" width="280" height="30" as="geometry" />
        </mxCell>
        <mxCell id="5jYEiSAaDZzHOvazZetj-15" value="static_folder" style="text;strokeColor=none;fillColor=none;align=left;verticalAlign=middle;spacingLeft=4;spacingRight=4;overflow=hidden;points=[[0,0.5],[1,0.5]];portConstraint=eastwest;rotatable=0;fontSize=22;" vertex="1" parent="5jYEiSAaDZzHOvazZetj-8">
          <mxGeometry y="120" width="280" height="30" as="geometry" />
        </mxCell>
        <mxCell id="5jYEiSAaDZzHOvazZetj-16" value="has_static_folder" style="text;strokeColor=none;fillColor=none;align=left;verticalAlign=middle;spacingLeft=4;spacingRight=4;overflow=hidden;points=[[0,0.5],[1,0.5]];portConstraint=eastwest;rotatable=0;fontSize=22;" vertex="1" parent="5jYEiSAaDZzHOvazZetj-8">
          <mxGeometry y="150" width="280" height="30" as="geometry" />
        </mxCell>
        <mxCell id="5jYEiSAaDZzHOvazZetj-17" value="static_url_path" style="text;strokeColor=none;fillColor=none;align=left;verticalAlign=middle;spacingLeft=4;spacingRight=4;overflow=hidden;points=[[0,0.5],[1,0.5]];portConstraint=eastwest;rotatable=0;fontSize=22;" vertex="1" parent="5jYEiSAaDZzHOvazZetj-8">
          <mxGeometry y="180" width="280" height="30" as="geometry" />
        </mxCell>
        <mxCell id="5jYEiSAaDZzHOvazZetj-23" value="jinja_loader" style="text;strokeColor=none;fillColor=none;align=left;verticalAlign=middle;spacingLeft=4;spacingRight=4;overflow=hidden;points=[[0,0.5],[1,0.5]];portConstraint=eastwest;rotatable=0;fontSize=22;" vertex="1" parent="5jYEiSAaDZzHOvazZetj-8">
          <mxGeometry y="210" width="280" height="30" as="geometry" />
        </mxCell>
        <mxCell id="5jYEiSAaDZzHOvazZetj-71" value="-------------------------------------" style="text;strokeColor=none;fillColor=none;align=left;verticalAlign=middle;spacingLeft=4;spacingRight=4;overflow=hidden;points=[[0,0.5],[1,0.5]];portConstraint=eastwest;rotatable=0;fontSize=22;" vertex="1" parent="5jYEiSAaDZzHOvazZetj-8">
          <mxGeometry y="240" width="280" as="geometry" />
        </mxCell>
        <mxCell id="5jYEiSAaDZzHOvazZetj-30" value="add_url_rule()" style="text;strokeColor=none;fillColor=none;align=left;verticalAlign=middle;spacingLeft=4;spacingRight=4;overflow=hidden;points=[[0,0.5],[1,0.5]];portConstraint=eastwest;rotatable=0;fontStyle=4;fontSize=22;" vertex="1" parent="5jYEiSAaDZzHOvazZetj-8">
          <mxGeometry y="240" width="280" height="30" as="geometry" />
        </mxCell>
        <mxCell id="5jYEiSAaDZzHOvazZetj-18" value="get_send_file_max_age()" style="text;strokeColor=none;fillColor=none;align=left;verticalAlign=middle;spacingLeft=4;spacingRight=4;overflow=hidden;points=[[0,0.5],[1,0.5]];portConstraint=eastwest;rotatable=0;fontSize=22;" vertex="1" parent="5jYEiSAaDZzHOvazZetj-8">
          <mxGeometry y="270" width="280" height="30" as="geometry" />
        </mxCell>
        <mxCell id="5jYEiSAaDZzHOvazZetj-21" value="send_static_file()" style="text;strokeColor=none;fillColor=none;align=left;verticalAlign=middle;spacingLeft=4;spacingRight=4;overflow=hidden;points=[[0,0.5],[1,0.5]];portConstraint=eastwest;rotatable=0;fontSize=22;" vertex="1" parent="5jYEiSAaDZzHOvazZetj-8">
          <mxGeometry y="300" width="280" height="30" as="geometry" />
        </mxCell>
        <mxCell id="5jYEiSAaDZzHOvazZetj-22" value="open_resource()" style="text;strokeColor=none;fillColor=none;align=left;verticalAlign=middle;spacingLeft=4;spacingRight=4;overflow=hidden;points=[[0,0.5],[1,0.5]];portConstraint=eastwest;rotatable=0;fontSize=22;" vertex="1" parent="5jYEiSAaDZzHOvazZetj-8">
          <mxGeometry y="330" width="280" height="30" as="geometry" />
        </mxCell>
        <mxCell id="5jYEiSAaDZzHOvazZetj-24" value="get()" style="text;strokeColor=none;fillColor=none;align=left;verticalAlign=middle;spacingLeft=4;spacingRight=4;overflow=hidden;points=[[0,0.5],[1,0.5]];portConstraint=eastwest;rotatable=0;fontSize=22;" vertex="1" parent="5jYEiSAaDZzHOvazZetj-8">
          <mxGeometry y="360" width="280" height="30" as="geometry" />
        </mxCell>
        <mxCell id="5jYEiSAaDZzHOvazZetj-25" value="post()" style="text;strokeColor=none;fillColor=none;align=left;verticalAlign=middle;spacingLeft=4;spacingRight=4;overflow=hidden;points=[[0,0.5],[1,0.5]];portConstraint=eastwest;rotatable=0;fontSize=22;" vertex="1" parent="5jYEiSAaDZzHOvazZetj-8">
          <mxGeometry y="390" width="280" height="30" as="geometry" />
        </mxCell>
        <mxCell id="5jYEiSAaDZzHOvazZetj-26" value="put()" style="text;strokeColor=none;fillColor=none;align=left;verticalAlign=middle;spacingLeft=4;spacingRight=4;overflow=hidden;points=[[0,0.5],[1,0.5]];portConstraint=eastwest;rotatable=0;fontSize=22;" vertex="1" parent="5jYEiSAaDZzHOvazZetj-8">
          <mxGeometry y="420" width="280" height="30" as="geometry" />
        </mxCell>
        <mxCell id="5jYEiSAaDZzHOvazZetj-27" value="delete()" style="text;strokeColor=none;fillColor=none;align=left;verticalAlign=middle;spacingLeft=4;spacingRight=4;overflow=hidden;points=[[0,0.5],[1,0.5]];portConstraint=eastwest;rotatable=0;fontSize=22;" vertex="1" parent="5jYEiSAaDZzHOvazZetj-8">
          <mxGeometry y="450" width="280" height="30" as="geometry" />
        </mxCell>
        <mxCell id="5jYEiSAaDZzHOvazZetj-28" value="patch()" style="text;strokeColor=none;fillColor=none;align=left;verticalAlign=middle;spacingLeft=4;spacingRight=4;overflow=hidden;points=[[0,0.5],[1,0.5]];portConstraint=eastwest;rotatable=0;fontSize=22;" vertex="1" parent="5jYEiSAaDZzHOvazZetj-8">
          <mxGeometry y="480" width="280" height="30" as="geometry" />
        </mxCell>
        <mxCell id="5jYEiSAaDZzHOvazZetj-29" value="route()" style="text;strokeColor=none;fillColor=none;align=left;verticalAlign=middle;spacingLeft=4;spacingRight=4;overflow=hidden;points=[[0,0.5],[1,0.5]];portConstraint=eastwest;rotatable=0;fontSize=22;" vertex="1" parent="5jYEiSAaDZzHOvazZetj-8">
          <mxGeometry y="510" width="280" height="30" as="geometry" />
        </mxCell>
        <mxCell id="5jYEiSAaDZzHOvazZetj-31" value="endpoint()" style="text;strokeColor=none;fillColor=none;align=left;verticalAlign=middle;spacingLeft=4;spacingRight=4;overflow=hidden;points=[[0,0.5],[1,0.5]];portConstraint=eastwest;rotatable=0;fontSize=22;" vertex="1" parent="5jYEiSAaDZzHOvazZetj-8">
          <mxGeometry y="540" width="280" height="30" as="geometry" />
        </mxCell>
        <mxCell id="5jYEiSAaDZzHOvazZetj-32" value="before_request()" style="text;strokeColor=none;fillColor=none;align=left;verticalAlign=middle;spacingLeft=4;spacingRight=4;overflow=hidden;points=[[0,0.5],[1,0.5]];portConstraint=eastwest;rotatable=0;fontSize=22;" vertex="1" parent="5jYEiSAaDZzHOvazZetj-8">
          <mxGeometry y="570" width="280" height="30" as="geometry" />
        </mxCell>
        <mxCell id="5jYEiSAaDZzHOvazZetj-34" value="after_request()" style="text;strokeColor=none;fillColor=none;align=left;verticalAlign=middle;spacingLeft=4;spacingRight=4;overflow=hidden;points=[[0,0.5],[1,0.5]];portConstraint=eastwest;rotatable=0;fontSize=22;" vertex="1" parent="5jYEiSAaDZzHOvazZetj-8">
          <mxGeometry y="600" width="280" height="30" as="geometry" />
        </mxCell>
        <mxCell id="5jYEiSAaDZzHOvazZetj-35" value="teardown_request()" style="text;strokeColor=none;fillColor=none;align=left;verticalAlign=middle;spacingLeft=4;spacingRight=4;overflow=hidden;points=[[0,0.5],[1,0.5]];portConstraint=eastwest;rotatable=0;fontSize=22;" vertex="1" parent="5jYEiSAaDZzHOvazZetj-8">
          <mxGeometry y="630" width="280" height="30" as="geometry" />
        </mxCell>
        <mxCell id="5jYEiSAaDZzHOvazZetj-38" value="context_processor()" style="text;strokeColor=none;fillColor=none;align=left;verticalAlign=middle;spacingLeft=4;spacingRight=4;overflow=hidden;points=[[0,0.5],[1,0.5]];portConstraint=eastwest;rotatable=0;fontSize=22;" vertex="1" parent="5jYEiSAaDZzHOvazZetj-8">
          <mxGeometry y="660" width="280" height="30" as="geometry" />
        </mxCell>
        <mxCell id="5jYEiSAaDZzHOvazZetj-36" value="url_value_preprocessor()" style="text;strokeColor=none;fillColor=none;align=left;verticalAlign=middle;spacingLeft=4;spacingRight=4;overflow=hidden;points=[[0,0.5],[1,0.5]];portConstraint=eastwest;rotatable=0;fontSize=22;" vertex="1" parent="5jYEiSAaDZzHOvazZetj-8">
          <mxGeometry y="690" width="280" height="30" as="geometry" />
        </mxCell>
        <mxCell id="5jYEiSAaDZzHOvazZetj-37" value="url_defaults()" style="text;strokeColor=none;fillColor=none;align=left;verticalAlign=middle;spacingLeft=4;spacingRight=4;overflow=hidden;points=[[0,0.5],[1,0.5]];portConstraint=eastwest;rotatable=0;fontSize=22;" vertex="1" parent="5jYEiSAaDZzHOvazZetj-8">
          <mxGeometry y="720" width="280" height="30" as="geometry" />
        </mxCell>
        <mxCell id="5jYEiSAaDZzHOvazZetj-39" value="errorhandler()" style="text;strokeColor=none;fillColor=none;align=left;verticalAlign=middle;spacingLeft=4;spacingRight=4;overflow=hidden;points=[[0,0.5],[1,0.5]];portConstraint=eastwest;rotatable=0;fontSize=22;" vertex="1" parent="5jYEiSAaDZzHOvazZetj-8">
          <mxGeometry y="750" width="280" height="30" as="geometry" />
        </mxCell>
        <mxCell id="5jYEiSAaDZzHOvazZetj-40" value="register_error_handler()" style="text;strokeColor=none;fillColor=none;align=left;verticalAlign=middle;spacingLeft=4;spacingRight=4;overflow=hidden;points=[[0,0.5],[1,0.5]];portConstraint=eastwest;rotatable=0;fontSize=22;" vertex="1" parent="5jYEiSAaDZzHOvazZetj-8">
          <mxGeometry y="780" width="280" height="30" as="geometry" />
        </mxCell>
        <mxCell id="5jYEiSAaDZzHOvazZetj-42" value="Flask" style="swimlane;fontStyle=1;childLayout=stackLayout;horizontal=1;startSize=30;horizontalStack=0;resizeParent=1;resizeParentMax=0;resizeLast=0;collapsible=1;marginBottom=0;fillColor=default;swimlaneFillColor=#E6E6E6;labelBackgroundColor=none;fontSize=24;verticalAlign=bottom;" vertex="1" parent="1">
          <mxGeometry x="700" y="-120" width="470" height="1740" as="geometry">
            <mxRectangle x="700" y="-120" width="70" height="30" as="alternateBounds" />
          </mxGeometry>
        </mxCell>
        <mxCell id="5jYEiSAaDZzHOvazZetj-64" value="name" style="text;strokeColor=none;fillColor=none;align=left;verticalAlign=middle;spacingLeft=4;spacingRight=4;overflow=hidden;points=[[0,0.5],[1,0.5]];portConstraint=eastwest;rotatable=0;fontStyle=4;fontSize=22;" vertex="1" parent="5jYEiSAaDZzHOvazZetj-42">
          <mxGeometry y="30" width="470" height="30" as="geometry" />
        </mxCell>
        <mxCell id="5jYEiSAaDZzHOvazZetj-56" value="json_encoder" style="text;strokeColor=none;fillColor=none;align=left;verticalAlign=middle;spacingLeft=4;spacingRight=4;overflow=hidden;points=[[0,0.5],[1,0.5]];portConstraint=eastwest;rotatable=0;fontStyle=4;fontSize=22;" vertex="1" parent="5jYEiSAaDZzHOvazZetj-42">
          <mxGeometry y="60" width="470" height="30" as="geometry" />
        </mxCell>
        <mxCell id="5jYEiSAaDZzHOvazZetj-57" value="json_decoder" style="text;strokeColor=none;fillColor=none;align=left;verticalAlign=middle;spacingLeft=4;spacingRight=4;overflow=hidden;points=[[0,0.5],[1,0.5]];portConstraint=eastwest;rotatable=0;fontStyle=4;fontSize=22;" vertex="1" parent="5jYEiSAaDZzHOvazZetj-42">
          <mxGeometry y="90" width="470" height="30" as="geometry" />
        </mxCell>
        <mxCell id="5jYEiSAaDZzHOvazZetj-44" value="request_class    " style="text;strokeColor=none;fillColor=none;align=left;verticalAlign=middle;spacingLeft=4;spacingRight=4;overflow=hidden;points=[[0,0.5],[1,0.5]];portConstraint=eastwest;rotatable=0;fontSize=22;" vertex="1" parent="5jYEiSAaDZzHOvazZetj-42">
          <mxGeometry y="120" width="470" height="30" as="geometry" />
        </mxCell>
        <mxCell id="5jYEiSAaDZzHOvazZetj-45" value="response_class" style="text;strokeColor=none;fillColor=none;align=left;verticalAlign=middle;spacingLeft=4;spacingRight=4;overflow=hidden;points=[[0,0.5],[1,0.5]];portConstraint=eastwest;rotatable=0;fontSize=22;" vertex="1" parent="5jYEiSAaDZzHOvazZetj-42">
          <mxGeometry y="150" width="470" height="30" as="geometry" />
        </mxCell>
        <mxCell id="5jYEiSAaDZzHOvazZetj-47" value="jinja_environment" style="text;strokeColor=none;fillColor=none;align=left;verticalAlign=middle;spacingLeft=4;spacingRight=4;overflow=hidden;points=[[0,0.5],[1,0.5]];portConstraint=eastwest;rotatable=0;fontSize=22;" vertex="1" parent="5jYEiSAaDZzHOvazZetj-42">
          <mxGeometry y="180" width="470" height="30" as="geometry" />
        </mxCell>
        <mxCell id="5jYEiSAaDZzHOvazZetj-48" value="app_ctx_globals_class" style="text;strokeColor=none;fillColor=none;align=left;verticalAlign=middle;spacingLeft=4;spacingRight=4;overflow=hidden;points=[[0,0.5],[1,0.5]];portConstraint=eastwest;rotatable=0;fontSize=22;" vertex="1" parent="5jYEiSAaDZzHOvazZetj-42">
          <mxGeometry y="210" width="470" height="30" as="geometry" />
        </mxCell>
        <mxCell id="5jYEiSAaDZzHOvazZetj-49" value="config_class" style="text;strokeColor=none;fillColor=none;align=left;verticalAlign=middle;spacingLeft=4;spacingRight=4;overflow=hidden;points=[[0,0.5],[1,0.5]];portConstraint=eastwest;rotatable=0;fontSize=22;" vertex="1" parent="5jYEiSAaDZzHOvazZetj-42">
          <mxGeometry y="240" width="470" height="30" as="geometry" />
        </mxCell>
        <mxCell id="5jYEiSAaDZzHOvazZetj-50" value="testing" style="text;strokeColor=none;fillColor=none;align=left;verticalAlign=middle;spacingLeft=4;spacingRight=4;overflow=hidden;points=[[0,0.5],[1,0.5]];portConstraint=eastwest;rotatable=0;fontSize=22;" vertex="1" parent="5jYEiSAaDZzHOvazZetj-42">
          <mxGeometry y="270" width="470" height="30" as="geometry" />
        </mxCell>
        <mxCell id="5jYEiSAaDZzHOvazZetj-51" value="secret_key" style="text;strokeColor=none;fillColor=none;align=left;verticalAlign=middle;spacingLeft=4;spacingRight=4;overflow=hidden;points=[[0,0.5],[1,0.5]];portConstraint=eastwest;rotatable=0;fontSize=22;" vertex="1" parent="5jYEiSAaDZzHOvazZetj-42">
          <mxGeometry y="300" width="470" height="30" as="geometry" />
        </mxCell>
        <mxCell id="5jYEiSAaDZzHOvazZetj-52" value="session_cookie_name" style="text;strokeColor=none;fillColor=none;align=left;verticalAlign=middle;spacingLeft=4;spacingRight=4;overflow=hidden;points=[[0,0.5],[1,0.5]];portConstraint=eastwest;rotatable=0;fontSize=22;" vertex="1" parent="5jYEiSAaDZzHOvazZetj-42">
          <mxGeometry y="330" width="470" height="30" as="geometry" />
        </mxCell>
        <mxCell id="5jYEiSAaDZzHOvazZetj-53" value="permanent_session_lifetime" style="text;strokeColor=none;fillColor=none;align=left;verticalAlign=middle;spacingLeft=4;spacingRight=4;overflow=hidden;points=[[0,0.5],[1,0.5]];portConstraint=eastwest;rotatable=0;fontSize=22;" vertex="1" parent="5jYEiSAaDZzHOvazZetj-42">
          <mxGeometry y="360" width="470" height="30" as="geometry" />
        </mxCell>
        <mxCell id="5jYEiSAaDZzHOvazZetj-54" value="send_file_max_age_default" style="text;strokeColor=none;fillColor=none;align=left;verticalAlign=middle;spacingLeft=4;spacingRight=4;overflow=hidden;points=[[0,0.5],[1,0.5]];portConstraint=eastwest;rotatable=0;fontSize=22;" vertex="1" parent="5jYEiSAaDZzHOvazZetj-42">
          <mxGeometry y="390" width="470" height="30" as="geometry" />
        </mxCell>
        <mxCell id="5jYEiSAaDZzHOvazZetj-55" value="use_x_sendfile" style="text;strokeColor=none;fillColor=none;align=left;verticalAlign=middle;spacingLeft=4;spacingRight=4;overflow=hidden;points=[[0,0.5],[1,0.5]];portConstraint=eastwest;rotatable=0;fontSize=22;" vertex="1" parent="5jYEiSAaDZzHOvazZetj-42">
          <mxGeometry y="420" width="470" height="30" as="geometry" />
        </mxCell>
        <mxCell id="5jYEiSAaDZzHOvazZetj-58" value="jinja_options" style="text;strokeColor=none;fillColor=none;align=left;verticalAlign=middle;spacingLeft=4;spacingRight=4;overflow=hidden;points=[[0,0.5],[1,0.5]];portConstraint=eastwest;rotatable=0;fontSize=22;" vertex="1" parent="5jYEiSAaDZzHOvazZetj-42">
          <mxGeometry y="450" width="470" height="30" as="geometry" />
        </mxCell>
        <mxCell id="5jYEiSAaDZzHOvazZetj-59" value="default_config" style="text;strokeColor=none;fillColor=none;align=left;verticalAlign=middle;spacingLeft=4;spacingRight=4;overflow=hidden;points=[[0,0.5],[1,0.5]];portConstraint=eastwest;rotatable=0;fontSize=22;" vertex="1" parent="5jYEiSAaDZzHOvazZetj-42">
          <mxGeometry y="480" width="470" height="30" as="geometry" />
        </mxCell>
        <mxCell id="5jYEiSAaDZzHOvazZetj-60" value="url_rule_class" style="text;strokeColor=none;fillColor=none;align=left;verticalAlign=middle;spacingLeft=4;spacingRight=4;overflow=hidden;points=[[0,0.5],[1,0.5]];portConstraint=eastwest;rotatable=0;fontSize=22;" vertex="1" parent="5jYEiSAaDZzHOvazZetj-42">
          <mxGeometry y="510" width="470" height="30" as="geometry" />
        </mxCell>
        <mxCell id="5jYEiSAaDZzHOvazZetj-61" value="test_client_class" style="text;strokeColor=none;fillColor=none;align=left;verticalAlign=middle;spacingLeft=4;spacingRight=4;overflow=hidden;points=[[0,0.5],[1,0.5]];portConstraint=eastwest;rotatable=0;fontSize=22;" vertex="1" parent="5jYEiSAaDZzHOvazZetj-42">
          <mxGeometry y="540" width="470" height="30" as="geometry" />
        </mxCell>
        <mxCell id="5jYEiSAaDZzHOvazZetj-62" value="test_cli_runner_class" style="text;strokeColor=none;fillColor=none;align=left;verticalAlign=middle;spacingLeft=4;spacingRight=4;overflow=hidden;points=[[0,0.5],[1,0.5]];portConstraint=eastwest;rotatable=0;fontSize=22;" vertex="1" parent="5jYEiSAaDZzHOvazZetj-42">
          <mxGeometry y="570" width="470" height="30" as="geometry" />
        </mxCell>
        <mxCell id="5jYEiSAaDZzHOvazZetj-63" value="session_interface" style="text;strokeColor=none;fillColor=none;align=left;verticalAlign=middle;spacingLeft=4;spacingRight=4;overflow=hidden;points=[[0,0.5],[1,0.5]];portConstraint=eastwest;rotatable=0;fontSize=22;" vertex="1" parent="5jYEiSAaDZzHOvazZetj-42">
          <mxGeometry y="600" width="470" height="30" as="geometry" />
        </mxCell>
        <mxCell id="5jYEiSAaDZzHOvazZetj-65" value="propagate_exceptions" style="text;strokeColor=none;fillColor=none;align=left;verticalAlign=middle;spacingLeft=4;spacingRight=4;overflow=hidden;points=[[0,0.5],[1,0.5]];portConstraint=eastwest;rotatable=0;fontSize=22;" vertex="1" parent="5jYEiSAaDZzHOvazZetj-42">
          <mxGeometry y="630" width="470" height="30" as="geometry" />
        </mxCell>
        <mxCell id="5jYEiSAaDZzHOvazZetj-66" value="preserve_context_on_exception" style="text;strokeColor=none;fillColor=none;align=left;verticalAlign=middle;spacingLeft=4;spacingRight=4;overflow=hidden;points=[[0,0.5],[1,0.5]];portConstraint=eastwest;rotatable=0;fontSize=22;" vertex="1" parent="5jYEiSAaDZzHOvazZetj-42">
          <mxGeometry y="660" width="470" height="30" as="geometry" />
        </mxCell>
        <mxCell id="5jYEiSAaDZzHOvazZetj-68" value="logger    " style="text;strokeColor=none;fillColor=none;align=left;verticalAlign=middle;spacingLeft=4;spacingRight=4;overflow=hidden;points=[[0,0.5],[1,0.5]];portConstraint=eastwest;rotatable=0;fontSize=22;" vertex="1" parent="5jYEiSAaDZzHOvazZetj-42">
          <mxGeometry y="690" width="470" height="30" as="geometry" />
        </mxCell>
        <mxCell id="5jYEiSAaDZzHOvazZetj-67" value="jinja_env" style="text;strokeColor=none;fillColor=none;align=left;verticalAlign=middle;spacingLeft=4;spacingRight=4;overflow=hidden;points=[[0,0.5],[1,0.5]];portConstraint=eastwest;rotatable=0;fontSize=22;" vertex="1" parent="5jYEiSAaDZzHOvazZetj-42">
          <mxGeometry y="720" width="470" height="30" as="geometry" />
        </mxCell>
        <mxCell id="5jYEiSAaDZzHOvazZetj-69" value="got_first_request" style="text;strokeColor=none;fillColor=none;align=left;verticalAlign=middle;spacingLeft=4;spacingRight=4;overflow=hidden;points=[[0,0.5],[1,0.5]];portConstraint=eastwest;rotatable=0;fontSize=22;" vertex="1" parent="5jYEiSAaDZzHOvazZetj-42">
          <mxGeometry y="750" width="470" height="30" as="geometry" />
        </mxCell>
        <mxCell id="5jYEiSAaDZzHOvazZetj-76" value="templates_auto_reload    " style="text;strokeColor=none;fillColor=none;align=left;verticalAlign=middle;spacingLeft=4;spacingRight=4;overflow=hidden;points=[[0,0.5],[1,0.5]];portConstraint=eastwest;rotatable=0;fontSize=22;" vertex="1" parent="5jYEiSAaDZzHOvazZetj-42">
          <mxGeometry y="780" width="470" height="30" as="geometry" />
        </mxCell>
        <mxCell id="5jYEiSAaDZzHOvazZetj-81" value="debug" style="text;strokeColor=none;fillColor=none;align=left;verticalAlign=middle;spacingLeft=4;spacingRight=4;overflow=hidden;points=[[0,0.5],[1,0.5]];portConstraint=eastwest;rotatable=0;fontSize=22;" vertex="1" parent="5jYEiSAaDZzHOvazZetj-42">
          <mxGeometry y="810" width="470" height="30" as="geometry" />
        </mxCell>
        <mxCell id="5jYEiSAaDZzHOvazZetj-72" value="---------------------------------------------------------------" style="text;strokeColor=none;fillColor=none;align=left;verticalAlign=middle;spacingLeft=4;spacingRight=4;overflow=hidden;points=[[0,0.5],[1,0.5]];portConstraint=eastwest;rotatable=0;rounded=0;labelBackgroundColor=none;fontSize=22;" vertex="1" parent="5jYEiSAaDZzHOvazZetj-42">
          <mxGeometry y="840" width="470" as="geometry" />
        </mxCell>
        <mxCell id="5jYEiSAaDZzHOvazZetj-85" value="add_url_rule()" style="text;strokeColor=none;fillColor=none;align=left;verticalAlign=middle;spacingLeft=4;spacingRight=4;overflow=hidden;points=[[0,0.5],[1,0.5]];portConstraint=eastwest;rotatable=0;fontStyle=4;fontSize=22;" vertex="1" parent="5jYEiSAaDZzHOvazZetj-42">
          <mxGeometry y="840" width="470" height="30" as="geometry" />
        </mxCell>
        <mxCell id="5jYEiSAaDZzHOvazZetj-70" value="make_config()" style="text;strokeColor=none;fillColor=none;align=left;verticalAlign=middle;spacingLeft=4;spacingRight=4;overflow=hidden;points=[[0,0.5],[1,0.5]];portConstraint=eastwest;rotatable=0;fontSize=22;" vertex="1" parent="5jYEiSAaDZzHOvazZetj-42">
          <mxGeometry y="870" width="470" height="30" as="geometry" />
        </mxCell>
        <mxCell id="5jYEiSAaDZzHOvazZetj-73" value="auto_fund_instance_path()" style="text;strokeColor=none;fillColor=none;align=left;verticalAlign=middle;spacingLeft=4;spacingRight=4;overflow=hidden;points=[[0,0.5],[1,0.5]];portConstraint=eastwest;rotatable=0;fontSize=22;" vertex="1" parent="5jYEiSAaDZzHOvazZetj-42">
          <mxGeometry y="900" width="470" height="30" as="geometry" />
        </mxCell>
        <mxCell id="5jYEiSAaDZzHOvazZetj-74" value="open_instance_resource()" style="text;strokeColor=none;fillColor=none;align=left;verticalAlign=middle;spacingLeft=4;spacingRight=4;overflow=hidden;points=[[0,0.5],[1,0.5]];portConstraint=eastwest;rotatable=0;fontSize=22;" vertex="1" parent="5jYEiSAaDZzHOvazZetj-42">
          <mxGeometry y="930" width="470" height="30" as="geometry" />
        </mxCell>
        <mxCell id="5jYEiSAaDZzHOvazZetj-75" value="create_jinja_environment()" style="text;strokeColor=none;fillColor=none;align=left;verticalAlign=middle;spacingLeft=4;spacingRight=4;overflow=hidden;points=[[0,0.5],[1,0.5]];portConstraint=eastwest;rotatable=0;fontSize=22;" vertex="1" parent="5jYEiSAaDZzHOvazZetj-42">
          <mxGeometry y="960" width="470" height="30" as="geometry" />
        </mxCell>
        <mxCell id="5jYEiSAaDZzHOvazZetj-77" value="create_global_jinja_loader()" style="text;strokeColor=none;fillColor=none;align=left;verticalAlign=middle;spacingLeft=4;spacingRight=4;overflow=hidden;points=[[0,0.5],[1,0.5]];portConstraint=eastwest;rotatable=0;fontSize=22;" vertex="1" parent="5jYEiSAaDZzHOvazZetj-42">
          <mxGeometry y="990" width="470" height="30" as="geometry" />
        </mxCell>
        <mxCell id="5jYEiSAaDZzHOvazZetj-78" value="select_jinja_autoescape()" style="text;strokeColor=none;fillColor=none;align=left;verticalAlign=middle;spacingLeft=4;spacingRight=4;overflow=hidden;points=[[0,0.5],[1,0.5]];portConstraint=eastwest;rotatable=0;fontSize=22;" vertex="1" parent="5jYEiSAaDZzHOvazZetj-42">
          <mxGeometry y="1020" width="470" height="30" as="geometry" />
        </mxCell>
        <mxCell id="5jYEiSAaDZzHOvazZetj-79" value="update_template_context()" style="text;strokeColor=none;fillColor=none;align=left;verticalAlign=middle;spacingLeft=4;spacingRight=4;overflow=hidden;points=[[0,0.5],[1,0.5]];portConstraint=eastwest;rotatable=0;fontSize=22;" vertex="1" parent="5jYEiSAaDZzHOvazZetj-42">
          <mxGeometry y="1050" width="470" height="30" as="geometry" />
        </mxCell>
        <mxCell id="5jYEiSAaDZzHOvazZetj-80" value="make_shell_context()" style="text;strokeColor=none;fillColor=none;align=left;verticalAlign=middle;spacingLeft=4;spacingRight=4;overflow=hidden;points=[[0,0.5],[1,0.5]];portConstraint=eastwest;rotatable=0;fontSize=22;" vertex="1" parent="5jYEiSAaDZzHOvazZetj-42">
          <mxGeometry y="1080" width="470" height="30" as="geometry" />
        </mxCell>
        <mxCell id="5jYEiSAaDZzHOvazZetj-82" value="run()" style="text;strokeColor=none;fillColor=none;align=left;verticalAlign=middle;spacingLeft=4;spacingRight=4;overflow=hidden;points=[[0,0.5],[1,0.5]];portConstraint=eastwest;rotatable=0;fontSize=22;" vertex="1" parent="5jYEiSAaDZzHOvazZetj-42">
          <mxGeometry y="1110" width="470" height="30" as="geometry" />
        </mxCell>
        <mxCell id="5jYEiSAaDZzHOvazZetj-83" value="test_client()" style="text;strokeColor=none;fillColor=none;align=left;verticalAlign=middle;spacingLeft=4;spacingRight=4;overflow=hidden;points=[[0,0.5],[1,0.5]];portConstraint=eastwest;rotatable=0;fontSize=22;" vertex="1" parent="5jYEiSAaDZzHOvazZetj-42">
          <mxGeometry y="1140" width="470" height="30" as="geometry" />
        </mxCell>
        <mxCell id="5jYEiSAaDZzHOvazZetj-84" value="test_cli_runner()" style="text;strokeColor=none;fillColor=none;align=left;verticalAlign=middle;spacingLeft=4;spacingRight=4;overflow=hidden;points=[[0,0.5],[1,0.5]];portConstraint=eastwest;rotatable=0;fontSize=22;" vertex="1" parent="5jYEiSAaDZzHOvazZetj-42">
          <mxGeometry y="1170" width="470" height="30" as="geometry" />
        </mxCell>
        <mxCell id="5jYEiSAaDZzHOvazZetj-86" value="template_filter()" style="text;strokeColor=none;fillColor=none;align=left;verticalAlign=middle;spacingLeft=4;spacingRight=4;overflow=hidden;points=[[0,0.5],[1,0.5]];portConstraint=eastwest;rotatable=0;fontSize=22;" vertex="1" parent="5jYEiSAaDZzHOvazZetj-42">
          <mxGeometry y="1200" width="470" height="30" as="geometry" />
        </mxCell>
        <mxCell id="5jYEiSAaDZzHOvazZetj-87" value="add_template_filter()" style="text;strokeColor=none;fillColor=none;align=left;verticalAlign=middle;spacingLeft=4;spacingRight=4;overflow=hidden;points=[[0,0.5],[1,0.5]];portConstraint=eastwest;rotatable=0;fontSize=22;" vertex="1" parent="5jYEiSAaDZzHOvazZetj-42">
          <mxGeometry y="1230" width="470" height="30" as="geometry" />
        </mxCell>
        <mxCell id="5jYEiSAaDZzHOvazZetj-88" value="template_test()" style="text;strokeColor=none;fillColor=none;align=left;verticalAlign=middle;spacingLeft=4;spacingRight=4;overflow=hidden;points=[[0,0.5],[1,0.5]];portConstraint=eastwest;rotatable=0;fontSize=22;" vertex="1" parent="5jYEiSAaDZzHOvazZetj-42">
          <mxGeometry y="1260" width="470" height="30" as="geometry" />
        </mxCell>
        <mxCell id="5jYEiSAaDZzHOvazZetj-89" value="add_template_test()" style="text;strokeColor=none;fillColor=none;align=left;verticalAlign=middle;spacingLeft=4;spacingRight=4;overflow=hidden;points=[[0,0.5],[1,0.5]];portConstraint=eastwest;rotatable=0;fontSize=22;" vertex="1" parent="5jYEiSAaDZzHOvazZetj-42">
          <mxGeometry y="1290" width="470" height="30" as="geometry" />
        </mxCell>
        <mxCell id="5jYEiSAaDZzHOvazZetj-90" value="template_global()" style="text;strokeColor=none;fillColor=none;align=left;verticalAlign=middle;spacingLeft=4;spacingRight=4;overflow=hidden;points=[[0,0.5],[1,0.5]];portConstraint=eastwest;rotatable=0;fontSize=22;" vertex="1" parent="5jYEiSAaDZzHOvazZetj-42">
          <mxGeometry y="1320" width="470" height="30" as="geometry" />
        </mxCell>
        <mxCell id="5jYEiSAaDZzHOvazZetj-91" value="before_first_request()" style="text;strokeColor=none;fillColor=none;align=left;verticalAlign=middle;spacingLeft=4;spacingRight=4;overflow=hidden;points=[[0,0.5],[1,0.5]];portConstraint=eastwest;rotatable=0;fontSize=22;" vertex="1" parent="5jYEiSAaDZzHOvazZetj-42">
          <mxGeometry y="1350" width="470" height="30" as="geometry" />
        </mxCell>
        <mxCell id="5jYEiSAaDZzHOvazZetj-92" value="teardown_appcontext()" style="text;strokeColor=none;fillColor=none;align=left;verticalAlign=middle;spacingLeft=4;spacingRight=4;overflow=hidden;points=[[0,0.5],[1,0.5]];portConstraint=eastwest;rotatable=0;fontSize=22;" vertex="1" parent="5jYEiSAaDZzHOvazZetj-42">
          <mxGeometry y="1380" width="470" height="30" as="geometry" />
        </mxCell>
        <mxCell id="5jYEiSAaDZzHOvazZetj-93" value="shell_context_processor()" style="text;strokeColor=none;fillColor=none;align=left;verticalAlign=middle;spacingLeft=4;spacingRight=4;overflow=hidden;points=[[0,0.5],[1,0.5]];portConstraint=eastwest;rotatable=0;fontSize=22;" vertex="1" parent="5jYEiSAaDZzHOvazZetj-42">
          <mxGeometry y="1410" width="470" height="30" as="geometry" />
        </mxCell>
        <mxCell id="5jYEiSAaDZzHOvazZetj-94" value="handle_http_exception()" style="text;strokeColor=none;fillColor=none;align=left;verticalAlign=middle;spacingLeft=4;spacingRight=4;overflow=hidden;points=[[0,0.5],[1,0.5]];portConstraint=eastwest;rotatable=0;fontSize=22;" vertex="1" parent="5jYEiSAaDZzHOvazZetj-42">
          <mxGeometry y="1440" width="470" height="30" as="geometry" />
        </mxCell>
        <mxCell id="5jYEiSAaDZzHOvazZetj-95" value="trap_http_excptioin()" style="text;strokeColor=none;fillColor=none;align=left;verticalAlign=middle;spacingLeft=4;spacingRight=4;overflow=hidden;points=[[0,0.5],[1,0.5]];portConstraint=eastwest;rotatable=0;fontSize=22;" vertex="1" parent="5jYEiSAaDZzHOvazZetj-42">
          <mxGeometry y="1470" width="470" height="30" as="geometry" />
        </mxCell>
        <mxCell id="5jYEiSAaDZzHOvazZetj-96" value="handle_user_exception()" style="text;strokeColor=none;fillColor=none;align=left;verticalAlign=middle;spacingLeft=4;spacingRight=4;overflow=hidden;points=[[0,0.5],[1,0.5]];portConstraint=eastwest;rotatable=0;fontSize=22;" vertex="1" parent="5jYEiSAaDZzHOvazZetj-42">
          <mxGeometry y="1500" width="470" height="30" as="geometry" />
        </mxCell>
        <mxCell id="5jYEiSAaDZzHOvazZetj-97" value="handle_exception()" style="text;strokeColor=none;fillColor=none;align=left;verticalAlign=middle;spacingLeft=4;spacingRight=4;overflow=hidden;points=[[0,0.5],[1,0.5]];portConstraint=eastwest;rotatable=0;fontSize=22;" vertex="1" parent="5jYEiSAaDZzHOvazZetj-42">
          <mxGeometry y="1530" width="470" height="30" as="geometry" />
        </mxCell>
        <mxCell id="5jYEiSAaDZzHOvazZetj-98" value="log_exception()" style="text;strokeColor=none;fillColor=none;align=left;verticalAlign=middle;spacingLeft=4;spacingRight=4;overflow=hidden;points=[[0,0.5],[1,0.5]];portConstraint=eastwest;rotatable=0;fontSize=22;" vertex="1" parent="5jYEiSAaDZzHOvazZetj-42">
          <mxGeometry y="1560" width="470" height="30" as="geometry" />
        </mxCell>
        <mxCell id="5jYEiSAaDZzHOvazZetj-99" value="raise_routing_exception()" style="text;strokeColor=none;fillColor=none;align=left;verticalAlign=middle;spacingLeft=4;spacingRight=4;overflow=hidden;points=[[0,0.5],[1,0.5]];portConstraint=eastwest;rotatable=0;fontSize=22;" vertex="1" parent="5jYEiSAaDZzHOvazZetj-42">
          <mxGeometry y="1590" width="470" height="30" as="geometry" />
        </mxCell>
        <mxCell id="5jYEiSAaDZzHOvazZetj-100" value="dispatch_request()" style="text;strokeColor=none;fillColor=none;align=left;verticalAlign=middle;spacingLeft=4;spacingRight=4;overflow=hidden;points=[[0,0.5],[1,0.5]];portConstraint=eastwest;rotatable=0;fontSize=22;" vertex="1" parent="5jYEiSAaDZzHOvazZetj-42">
          <mxGeometry y="1620" width="470" height="30" as="geometry" />
        </mxCell>
        <mxCell id="5jYEiSAaDZzHOvazZetj-101" value="full_dispatch_request()" style="text;strokeColor=none;fillColor=none;align=left;verticalAlign=middle;spacingLeft=4;spacingRight=4;overflow=hidden;points=[[0,0.5],[1,0.5]];portConstraint=eastwest;rotatable=0;fontSize=22;" vertex="1" parent="5jYEiSAaDZzHOvazZetj-42">
          <mxGeometry y="1650" width="470" height="30" as="geometry" />
        </mxCell>
        <mxCell id="5jYEiSAaDZzHOvazZetj-102" value="finalize_request()" style="text;strokeColor=none;fillColor=none;align=left;verticalAlign=middle;spacingLeft=4;spacingRight=4;overflow=hidden;points=[[0,0.5],[1,0.5]];portConstraint=eastwest;rotatable=0;fontSize=22;" vertex="1" parent="5jYEiSAaDZzHOvazZetj-42">
          <mxGeometry y="1680" width="470" height="30" as="geometry" />
        </mxCell>
        <mxCell id="5jYEiSAaDZzHOvazZetj-103" value="try_trigger_before_first_request_functions()" style="text;strokeColor=none;fillColor=none;align=left;verticalAlign=middle;spacingLeft=4;spacingRight=4;overflow=hidden;points=[[0,0.5],[1,0.5]];portConstraint=eastwest;rotatable=0;fontSize=22;" vertex="1" parent="5jYEiSAaDZzHOvazZetj-42">
          <mxGeometry y="1710" width="470" height="30" as="geometry" />
        </mxCell>
      </root>
    </mxGraphModel>
  </diagram>
</mxfile>
